<?xml version="1.0" standalone="no"?>
<!DOCTYPE svg>
<svg version="1.0" xmlns="http://www.w3.org/2000/svg"
 width="696.000000pt" height="696.000000pt" viewBox="0 0 696.000000 696.000000"
 preserveAspectRatio="xMidYMid meet">

<g transform="translate(0.000000,696.000000) scale(0.100000,-0.100000)"
fill="#000000" stroke="none">
<path d="M3275 6954 c-22 -2 -89 -9 -150 -14 -578 -55 -1178 -281 -1658 -624
-176 -126 -257 -196 -442 -381 -292 -292 -468 -532 -645 -880 -190 -372 -313
-786 -361 -1215 -17 -147 -17 -572 -1 -715 79 -690 327 -1289 758 -1835 88
-110 415 -437 522 -520 216 -168 390 -280 607 -390 879 -448 1911 -500 2827
-144 337 130 646 308 928 532 120 96 445 421 530 530 169 217 280 390 390 607
504 989 504 2161 0 3150 -177 348 -353 588 -645 880 -292 292 -532 468 -880
645 -367 187 -754 304 -1175 356 -119 14 -520 27 -605 18z m519 -299 c197 -18
310 -39 535 -101 924 -254 1697 -934 2071 -1823 67 -159 83 -206 131 -376 74
-265 103 -458 115 -775 7 -185 -15 -492 -46 -655 -77 -396 -233 -794 -439
-1118 -70 -111 -184 -273 -200 -287 -4 -3 -41 -45 -82 -95 -97 -115 -300 -311
-426 -411 -459 -366 -979 -584 -1593 -670 -157 -22 -574 -25 -730 -6 -134 17
-441 77 -528 103 -817 248 -1457 748 -1874 1463 -126 216 -244 492 -312 728
-22 77 -70 316 -93 458 -25 165 -25 644 0 815 126 842 493 1501 1142 2051 302
256 725 476 1138 593 255 72 353 90 652 114 111 9 389 5 539 -8z"/>
<path d="M1390 4523 c0 -10 25 -110 55 -223 30 -113 83 -315 119 -450 35 -135
94 -360 131 -500 109 -415 181 -689 207 -790 l25 -95 137 -3 137 -3 -3 333 -3
333 -48 220 c-47 213 -146 676 -208 975 -17 80 -35 162 -40 183 l-10 37 -249
0 c-231 0 -250 -1 -250 -17z"/>
<path d="M2631 4503 c-6 -21 -14 -56 -19 -78 -5 -22 -37 -141 -71 -265 -35
-124 -89 -319 -121 -435 -32 -115 -84 -304 -116 -420 l-59 -210 -3 -317 -3
-318 114 0 115 0 6 28 c4 15 29 108 55 207 27 99 79 295 116 435 37 140 94
352 126 470 64 236 65 241 75 340 3 39 10 68 14 65 4 -2 10 -33 13 -68 5 -57
65 -305 176 -727 34 -126 152 -585 183 -707 l11 -43 128 0 129 0 0 297 0 296
-35 151 c-33 142 -56 237 -204 836 -33 135 -70 286 -81 335 -11 50 -25 107
-31 128 l-10 37 -249 0 -249 0 -10 -37z"/>
<path d="M3837 4533 c-4 -3 -7 -17 -7 -30 0 -14 -30 -165 -66 -336 -246 -1170
-225 -1043 -232 -1404 l-5 -303 116 0 116 0 21 69 c11 37 20 73 20 80 0 6 26
109 59 228 32 120 75 281 96 358 20 77 49 187 65 245 15 58 58 220 95 360 37
140 86 327 111 415 50 184 74 283 74 308 0 16 -17 17 -228 17 -126 0 -232 -3
-235 -7z"/>
<path d="M4320 4025 l0 -515 575 0 575 0 0 90 0 90 -342 2 -343 3 0 230 0 230
363 3 362 2 1 160 c1 88 2 167 2 175 0 48 38 45 -598 45 l-595 0 0 -515z"/>
<path d="M4320 2965 l0 -505 620 0 620 0 0 190 0 190 -390 0 -390 0 2 238 3
237 343 3 342 2 0 75 0 75 -575 0 -575 0 0 -505z"/>
</g>
</svg>
